P2
65 80
256

255 255 255 255 255 255 255 255 255 255 255 255 255 255 255 255 255 255 255 255 255 255 229 194 160 128 105 085 066 056 049 042 047 055 064 073 096 123 151 181 229 255 255 255 255 255 255 255 255 255 255 255 255 255 255 255 255 255 255 255 255 255 255 255 255 
255 255 255 255 255 255 255 255 255 255 255 255 255 255 255 255 255 222 164 109 063 017 000 000 000 000 000 000 000 000 000 000 000 000 000 000 000 000 000 000 000 022 071 135 209 255 255 255 255 255 255 255 255 255 255 255 255 255 255 255 255 255 255 255 255 
255 255 255 255 255 255 255 255 255 255 255 255 255 229 159 089 025 000 000 000 000 000 000 000 000 000 000 000 000 000 000 000 000 000 000 000 000 000 000 000 000 000 000 000 000 029 114 217 255 255 255 255 255 255 255 255 255 255 255 255 255 255 255 255 255 
255 255 255 255 255 255 255 255 255 255 211 128 047 000 000 000 000 000 000 000 000 000 000 000 000 000 000 000 000 000 000 000 000 000 000 000 000 000 000 000 000 000 000 000 000 000 000 001 067 187 255 255 255 255 255 255 255 255 255 255 255 255 255 255 255 
255 255 255 255 255 255 255 221 129 038 000 000 000 000 000 000 000 000 000 000 000 000 000 000 000 000 000 000 000 000 000 000 000 000 000 000 000 000 000 000 000 000 000 000 000 000 000 000 000 000 071 208 255 255 255 255 255 255 255 255 255 255 255 255 255 
255 255 255 255 255 242 060 000 000 000 000 000 000 000 000 000 000 000 000 000 000 000 000 000 000 000 000 000 000 000 000 000 000 000 000 000 000 000 000 000 000 000 000 000 000 000 000 000 000 000 000 003 127 252 255 255 255 255 255 255 255 255 255 255 255 
255 255 255 255 255 231 000 000 000 000 000 000 000 000 000 000 000 000 000 000 000 000 000 000 000 000 000 000 000 000 000 000 000 000 000 000 000 000 000 000 000 000 000 000 000 000 000 000 000 000 000 000 000 059 227 255 255 255 255 255 255 255 255 255 255 
255 255 255 255 255 231 000 000 000 000 000 000 000 000 000 000 000 000 000 000 000 000 000 000 000 000 000 000 000 000 000 000 000 000 000 000 000 000 000 000 000 000 000 000 000 000 000 000 000 000 000 000 000 000 029 216 255 255 255 255 255 255 255 255 255 
255 255 255 255 255 231 000 000 000 000 000 000 000 000 000 000 000 000 000 000 000 000 000 000 000 000 000 000 000 000 000 000 000 000 000 000 000 000 000 000 000 000 000 000 000 000 000 000 000 000 000 000 000 000 000 020 206 255 255 255 255 255 255 255 255 
255 255 255 255 255 231 000 000 000 000 000 000 000 000 000 000 000 000 000 000 000 000 000 000 000 000 000 000 000 000 000 000 000 000 000 000 000 000 000 000 000 000 000 000 000 000 000 000 000 000 000 000 000 000 000 000 025 228 255 255 255 255 255 255 255 
255 255 255 255 255 231 000 000 000 000 000 000 000 000 000 000 000 000 000 000 000 000 000 000 000 004 025 044 052 059 065 059 052 034 010 000 000 000 000 000 000 000 000 000 000 000 000 000 000 000 000 000 000 000 000 000 000 050 245 255 255 255 255 255 255 
255 255 255 255 255 231 000 000 000 000 000 000 000 000 000 000 000 000 000 021 077 123 162 202 234 254 255 255 255 255 255 255 255 255 255 237 195 149 087 023 000 000 000 000 000 000 000 000 000 000 000 000 000 000 000 000 000 000 105 255 255 255 255 255 255 
255 255 255 255 255 231 000 000 000 000 000 000 000 000 000 017 086 159 220 255 255 255 255 255 255 255 255 255 255 255 255 255 255 255 255 255 255 255 255 253 192 099 007 000 000 000 000 000 000 000 000 000 000 000 000 000 000 000 001 194 255 255 255 255 255 
255 255 255 255 255 231 000 000 000 000 000 000 015 099 191 252 255 255 255 255 255 255 255 255 255 255 255 255 255 255 255 255 255 255 255 255 255 255 255 255 255 255 232 113 005 000 000 000 000 000 000 000 000 000 000 000 000 000 000 039 251 255 255 255 255 
255 255 255 255 255 231 000 000 000 000 057 167 248 255 255 255 255 255 255 255 255 255 255 255 255 255 255 255 255 255 255 255 255 255 255 255 255 255 255 255 255 255 255 255 214 050 000 000 000 000 000 000 000 000 000 000 000 000 000 000 158 255 255 255 255 
255 255 255 255 255 231 000 001 086 202 255 255 255 255 255 255 255 255 255 255 255 255 255 255 255 255 255 255 255 255 255 255 255 255 255 255 255 255 255 255 255 255 255 255 255 249 100 000 000 000 000 000 000 000 000 000 000 000 000 000 036 252 255 255 255 
255 255 255 255 255 232 081 210 255 255 255 255 255 255 255 255 255 255 255 255 255 255 255 255 255 255 255 255 255 255 255 255 255 255 255 255 255 255 255 255 255 255 255 255 255 255 255 116 000 000 000 000 000 000 000 000 000 000 000 000 000 168 255 255 255 
255 255 255 255 255 255 255 255 255 255 255 255 255 255 255 255 255 255 255 255 255 255 255 255 255 255 255 255 255 255 255 255 255 255 255 255 255 255 255 255 255 255 255 255 255 255 255 255 090 000 000 000 000 000 000 000 000 000 000 000 000 071 255 255 255 
255 255 255 255 255 255 255 255 255 255 255 255 255 255 255 255 255 255 255 255 255 255 255 255 255 255 255 255 255 255 255 255 255 255 255 255 255 255 255 255 255 255 255 255 255 255 255 255 246 037 000 000 000 000 000 000 000 000 000 000 000 003 229 255 255 
255 255 255 255 255 255 255 255 255 255 255 255 255 255 255 255 255 255 255 255 255 255 255 255 255 255 255 255 255 255 255 255 255 255 255 255 255 255 255 255 255 255 255 255 255 255 255 255 255 192 000 000 000 000 000 000 000 000 000 000 000 000 141 255 255 
255 255 255 255 255 255 255 255 255 255 255 255 255 255 255 255 255 255 255 255 255 255 255 255 255 255 255 255 255 255 255 255 255 255 255 255 255 255 255 255 255 255 255 255 255 255 255 255 255 255 069 000 000 000 000 000 000 000 000 000 000 000 071 255 255 
255 255 255 255 255 255 255 255 255 255 255 255 255 255 255 255 255 255 255 255 255 255 255 255 255 255 255 255 255 255 255 255 255 255 255 255 255 255 255 255 255 255 255 255 255 255 255 255 255 255 184 000 000 000 000 000 000 000 000 000 000 000 010 249 255 
255 255 255 255 255 255 255 255 255 255 255 255 255 255 255 255 255 255 255 255 255 255 255 255 255 255 255 255 255 255 255 255 255 255 255 255 255 255 255 255 255 255 255 255 255 255 255 255 255 255 252 023 000 000 000 000 000 000 000 000 000 000 000 193 255 
255 255 255 255 255 255 255 255 255 255 255 255 255 255 255 255 255 255 255 255 255 255 255 255 255 255 255 255 255 255 255 255 255 255 255 255 255 255 255 255 255 255 255 255 255 255 255 255 255 255 255 092 000 000 000 000 000 000 000 000 000 000 000 140 255 
255 255 255 255 255 255 255 255 255 255 255 255 255 255 255 255 255 255 255 255 255 255 255 255 255 255 255 255 255 255 255 255 255 255 255 255 255 255 255 255 255 255 255 255 255 255 255 255 255 255 255 153 000 000 000 000 000 000 000 000 000 000 000 096 255 
255 255 255 255 255 255 255 255 255 255 255 255 255 255 255 255 255 255 255 255 255 255 255 255 255 255 255 255 255 255 255 255 255 255 255 255 255 255 255 255 255 255 255 255 255 255 255 255 255 255 255 194 000 000 000 000 000 000 000 000 000 000 000 051 255 
255 255 255 255 255 255 255 255 255 255 255 255 255 255 255 255 255 255 255 255 255 255 255 255 255 255 255 255 255 255 255 255 255 255 255 255 255 255 255 255 255 255 255 255 255 255 255 255 255 255 255 228 000 000 000 000 000 000 000 000 000 000 000 009 255 
255 255 255 255 255 255 255 255 255 255 255 255 255 255 255 255 255 255 255 255 255 255 255 255 255 255 255 255 255 255 255 255 255 255 255 255 255 255 255 255 255 255 255 255 255 255 255 255 255 255 255 245 000 000 000 000 000 000 000 000 000 000 000 000 238 
255 255 255 255 255 255 255 255 255 255 255 255 255 255 255 255 255 255 255 255 255 255 255 255 255 255 255 255 255 255 255 255 255 255 255 255 255 255 255 255 255 255 255 255 255 255 255 255 255 255 255 254 001 000 000 000 000 000 000 000 000 000 000 000 213 
255 255 255 255 255 255 255 255 255 255 255 255 255 255 255 255 255 255 255 255 255 255 255 255 255 255 255 255 255 255 255 255 255 255 255 255 255 255 255 255 255 255 255 255 255 255 255 255 255 255 255 255 003 000 000 000 000 000 000 000 000 000 000 000 188 
255 255 255 255 255 255 255 255 255 255 255 255 255 255 255 255 255 255 255 255 255 255 252 218 182 146 112 089 069 049 031 024 017 010 005 003 003 003 003 003 003 003 003 003 003 003 003 003 003 003 003 003 000 000 000 000 000 000 000 000 000 000 000 000 166 
255 255 255 255 255 255 255 255 255 255 255 255 255 255 255 255 255 255 243 175 116 061 010 000 000 000 000 000 000 000 000 000 000 000 000 000 000 000 000 000 000 000 000 000 000 000 000 000 000 000 000 000 000 000 000 000 000 000 000 000 000 000 000 000 156 
255 255 255 255 255 255 255 255 255 255 255 255 255 255 255 240 151 070 006 000 000 000 000 000 000 000 000 000 000 000 000 000 000 000 000 000 000 000 000 000 000 000 000 000 000 000 000 000 000 000 000 000 000 000 000 000 000 000 000 000 000 000 000 000 148 
255 255 255 255 255 255 255 255 255 255 255 255 255 206 097 010 000 000 000 000 000 000 000 000 000 000 000 000 000 000 000 000 000 000 000 000 000 000 000 000 000 000 000 000 000 000 000 000 000 000 000 000 000 000 000 000 000 000 000 000 000 000 000 000 140 
255 255 255 255 255 255 255 255 255 255 255 214 084 001 000 000 000 000 000 000 000 000 000 000 000 000 000 000 000 000 000 000 000 000 000 000 000 000 000 000 000 000 000 000 000 000 000 000 000 000 000 000 000 000 000 000 000 000 000 000 000 000 000 000 133 
255 255 255 255 255 255 255 255 255 248 121 003 000 000 000 000 000 000 000 000 000 000 000 000 000 000 000 000 000 000 000 000 000 000 000 000 000 000 000 000 000 000 000 000 000 000 000 000 000 000 000 000 000 000 000 000 000 000 000 000 000 000 000 000 131 
255 255 255 255 255 255 255 255 213 043 000 000 000 000 000 000 000 000 000 000 000 000 000 000 000 000 000 000 000 000 000 000 000 000 000 000 000 000 000 000 000 000 000 000 000 000 000 000 000 000 000 000 000 000 000 000 000 000 000 000 000 000 000 000 131 
255 255 255 255 255 255 255 187 015 000 000 000 000 000 000 000 000 000 000 000 000 000 000 000 000 000 000 000 000 000 000 000 000 000 000 000 000 000 000 000 000 000 000 000 000 000 000 000 000 000 000 000 000 000 000 000 000 000 000 000 000 000 000 000 131 
255 255 255 255 255 255 174 004 000 000 000 000 000 000 000 000 000 000 000 000 000 000 000 000 000 000 000 000 000 000 000 000 000 000 000 000 000 000 000 000 000 000 000 000 000 000 000 000 000 000 000 000 000 000 000 000 000 000 000 000 000 000 000 000 131 
255 255 255 255 255 193 008 000 000 000 000 000 000 000 000 000 000 000 000 000 000 000 000 000 000 000 000 000 000 000 000 000 000 010 022 035 043 046 050 055 055 055 055 055 055 055 055 055 055 055 055 055 000 000 000 000 000 000 000 000 000 000 000 000 131 
255 255 255 255 226 016 000 000 000 000 000 000 000 000 000 000 000 000 000 000 000 000 000 000 000 024 074 113 148 182 207 229 251 255 255 255 255 255 255 255 255 255 255 255 255 255 255 255 255 255 255 255 003 000 000 000 000 000 000 000 000 000 000 000 131 
255 255 255 254 066 000 000 000 000 000 000 000 000 000 000 000 000 000 000 000 000 015 092 162 228 255 255 255 255 255 255 255 255 255 255 255 255 255 255 255 255 255 255 255 255 255 255 255 255 255 255 255 003 000 000 000 000 000 000 000 000 000 000 000 131 
255 255 255 153 000 000 000 000 000 000 000 000 000 000 000 000 000 000 000 048 166 247 255 255 255 255 255 255 255 255 255 255 255 255 255 255 255 255 255 255 255 255 255 255 255 255 255 255 255 255 255 255 003 000 000 000 000 000 000 000 000 000 000 000 131 
255 255 247 027 000 000 000 000 000 000 000 000 000 000 000 000 000 017 163 254 255 255 255 255 255 255 255 255 255 255 255 255 255 255 255 255 255 255 255 255 255 255 255 255 255 255 255 255 255 255 255 251 000 000 000 000 000 000 000 000 000 000 000 000 131 
255 255 144 000 000 000 000 000 000 000 000 000 000 000 000 000 042 226 255 255 255 255 255 255 255 255 255 255 255 255 255 255 255 255 255 255 255 255 255 255 255 255 255 255 255 255 255 255 255 255 255 242 000 000 000 000 000 000 000 000 000 000 000 000 131 
255 255 041 000 000 000 000 000 000 000 000 000 000 000 000 037 236 255 255 255 255 255 255 255 255 255 255 255 255 255 255 255 255 255 255 255 255 255 255 255 255 255 255 255 255 255 255 255 255 255 255 232 000 000 000 000 000 000 000 000 000 000 000 000 131 
255 200 000 000 000 000 000 000 000 000 000 000 000 000 007 212 255 255 255 255 255 255 255 255 255 255 255 255 255 255 255 255 255 255 255 255 255 255 255 255 255 255 255 255 255 255 255 255 255 255 255 208 000 000 000 000 000 000 000 000 000 000 000 000 131 
255 117 000 000 000 000 000 000 000 000 000 000 000 000 121 255 255 255 255 255 255 255 255 255 255 255 255 255 255 255 255 255 255 255 255 255 255 255 255 255 255 255 255 255 255 255 255 255 255 255 255 181 000 000 000 000 000 000 000 000 000 000 000 000 131 
255 053 000 000 000 000 000 000 000 000 000 000 000 009 237 255 255 255 255 255 255 255 255 255 255 255 255 255 255 255 255 255 255 255 255 255 255 255 255 255 255 255 255 255 255 255 255 255 255 255 255 151 000 000 000 000 000 000 000 000 000 000 000 000 131 
243 003 000 000 000 000 000 000 000 000 000 000 000 091 255 255 255 255 255 255 255 255 255 255 255 255 255 255 255 255 255 255 255 255 255 255 255 255 255 255 255 255 255 255 255 255 255 255 255 255 255 105 000 000 000 000 000 000 000 000 000 000 000 000 131 
201 000 000 000 000 000 000 000 000 000 000 000 000 163 255 255 255 255 255 255 255 255 255 255 255 255 255 255 255 255 255 255 255 255 255 255 255 255 255 255 255 255 255 255 255 255 255 255 255 255 255 058 000 000 000 000 000 000 000 000 000 000 000 000 131 
166 000 000 000 000 000 000 000 000 000 000 000 000 222 255 255 255 255 255 255 255 255 255 255 255 255 255 255 255 255 255 255 255 255 255 255 255 255 255 255 255 255 255 255 255 255 255 255 255 255 248 009 000 000 000 000 000 000 000 000 000 000 000 000 131 
132 000 000 000 000 000 000 000 000 000 000 000 007 253 255 255 255 255 255 255 255 255 255 255 255 255 255 255 255 255 255 255 255 255 255 255 255 255 255 255 255 255 255 255 255 255 255 255 255 255 187 000 000 000 000 000 000 000 000 000 000 000 000 000 131 
113 000 000 000 000 000 000 000 000 000 000 000 030 255 255 255 255 255 255 255 255 255 255 255 255 255 255 255 255 255 255 255 255 255 255 255 255 255 255 255 255 255 255 255 255 255 255 255 255 255 116 000 000 000 000 000 000 000 000 000 000 000 000 000 131 
102 000 000 000 000 000 000 000 000 000 000 000 041 255 255 255 255 255 255 255 255 255 255 255 255 255 255 255 255 255 255 255 255 255 255 255 255 255 255 255 255 255 255 255 255 255 255 255 255 253 027 000 000 000 000 000 000 000 000 000 000 000 000 000 131 
091 000 000 000 000 000 000 000 000 000 000 000 043 255 255 255 255 255 255 255 255 255 255 255 255 255 255 255 255 255 255 255 255 255 255 255 255 255 255 255 255 255 255 255 255 255 255 255 255 185 000 000 000 000 000 000 000 000 000 000 000 000 000 000 131 
093 000 000 000 000 000 000 000 000 000 000 000 032 255 255 255 255 255 255 255 255 255 255 255 255 255 255 255 255 255 255 255 255 255 255 255 255 255 255 255 255 255 255 255 255 255 255 255 255 073 000 000 000 000 000 000 000 000 000 000 000 000 000 000 131 
103 000 000 000 000 000 000 000 000 000 000 000 006 253 255 255 255 255 255 255 255 255 255 255 255 255 255 255 255 255 255 255 255 255 255 255 255 255 255 255 255 255 255 255 255 255 255 255 205 000 000 000 000 000 000 000 000 000 000 000 000 000 000 000 131 
116 000 000 000 000 000 000 000 000 000 000 000 000 216 255 255 255 255 255 255 255 255 255 255 255 255 255 255 255 255 255 255 255 255 255 255 255 255 255 255 255 255 255 255 255 255 255 255 070 000 000 000 000 000 000 000 000 000 000 000 000 000 000 000 131 
145 000 000 000 000 000 000 000 000 000 000 000 000 155 255 255 255 255 255 255 255 255 255 255 255 255 255 255 255 255 255 255 255 255 255 255 255 255 255 255 255 255 255 255 255 255 255 167 000 000 000 000 000 000 000 000 000 000 000 000 000 000 000 000 131 
177 000 000 000 000 000 000 000 000 000 000 000 000 071 255 255 255 255 255 255 255 255 255 255 255 255 255 255 255 255 255 255 255 255 255 255 255 255 255 255 255 255 255 255 255 255 231 023 000 000 000 000 000 000 000 000 000 000 000 000 000 000 000 000 131 
220 000 000 000 000 000 000 000 000 000 000 000 000 002 218 255 255 255 255 255 255 255 255 255 255 255 255 255 255 255 255 255 255 255 255 255 255 255 255 255 255 255 255 255 255 252 063 000 000 000 000 000 000 000 000 000 000 000 000 000 000 000 000 000 131 
255 021 000 000 000 000 000 000 000 000 000 000 000 000 088 255 255 255 255 255 255 255 255 255 255 255 255 255 255 255 255 255 255 255 255 255 255 255 255 255 255 255 255 255 255 104 000 000 000 000 000 000 000 000 000 000 000 000 000 000 000 000 000 000 131 
255 082 000 000 000 000 000 000 000 000 000 000 000 000 000 178 255 255 255 255 255 255 255 255 255 255 255 255 255 255 255 255 255 255 255 255 255 255 255 255 255 255 255 255 118 000 000 000 000 000 000 000 000 000 000 000 000 000 000 000 000 000 000 000 131 
255 163 000 000 000 000 000 000 000 000 000 000 000 000 000 015 213 255 255 255 255 255 255 255 255 255 255 255 255 255 255 255 255 255 255 255 255 255 255 255 255 255 251 100 000 000 000 000 000 000 000 000 000 000 000 000 000 000 000 000 000 000 000 000 131 
255 241 008 000 000 000 000 000 000 000 000 000 000 000 000 000 023 205 255 255 255 255 255 255 255 255 255 255 255 255 255 255 255 255 255 255 255 255 255 255 255 226 064 000 000 000 000 000 000 000 000 000 000 000 000 000 000 000 000 000 000 000 000 000 131 
255 255 100 000 000 000 000 000 000 000 000 000 000 000 000 000 000 006 141 254 255 255 255 255 255 255 255 255 255 255 255 255 255 255 255 255 255 255 255 252 153 014 000 000 000 000 000 000 000 000 000 023 002 000 000 000 000 000 000 000 000 000 000 000 131 
255 255 215 001 000 000 000 000 000 000 000 000 000 000 000 000 000 000 000 064 186 255 255 255 255 255 255 255 255 255 255 255 255 255 255 255 255 247 162 037 000 000 000 000 000 000 000 000 000 000 000 181 003 000 000 000 000 000 000 000 000 000 000 000 131 
255 255 255 099 000 000 000 000 000 000 000 000 000 000 000 000 000 000 000 000 000 043 143 206 252 255 255 255 255 255 255 255 255 255 238 175 102 016 000 000 000 000 000 000 000 000 000 000 000 000 105 255 003 000 000 000 000 000 000 000 000 000 000 000 131 
255 255 255 235 017 000 000 000 000 000 000 000 000 000 000 000 000 000 000 000 000 000 000 000 013 064 087 104 122 127 116 103 071 034 002 000 000 000 000 000 000 000 000 000 000 000 000 000 000 042 245 255 003 000 000 000 000 000 000 000 000 000 000 000 131 
255 255 255 255 174 000 000 000 000 000 000 000 000 000 000 000 000 000 000 000 000 000 000 000 000 000 000 000 000 000 000 000 000 000 000 000 000 000 000 000 000 000 000 000 000 000 000 000 027 225 255 255 003 000 000 000 000 000 000 000 000 000 000 000 131 
255 255 255 255 255 114 000 000 000 000 000 000 000 000 000 000 000 000 000 000 000 000 000 000 000 000 000 000 000 000 000 000 000 000 000 000 000 000 000 000 000 000 000 000 000 000 000 017 211 255 255 255 003 000 000 000 000 000 000 000 000 000 000 000 131 
255 255 255 255 255 253 090 000 000 000 000 000 000 000 000 000 000 000 000 000 000 000 000 000 000 000 000 000 000 000 000 000 000 000 000 000 000 000 000 000 000 000 000 000 000 000 017 197 255 255 255 255 003 000 000 000 000 000 000 000 000 000 000 000 131 
255 255 255 255 255 255 251 088 000 000 000 000 000 000 000 000 000 000 000 000 000 000 000 000 000 000 000 000 000 000 000 000 000 000 000 000 000 000 000 000 000 000 000 000 000 039 218 255 255 255 255 255 003 000 000 000 000 000 000 000 000 000 000 000 131 
255 255 255 255 255 255 255 254 122 000 000 000 000 000 000 000 000 000 000 000 000 000 000 000 000 000 000 000 000 000 000 000 000 000 000 000 000 000 000 000 000 000 000 000 072 239 255 255 255 255 255 255 003 000 000 000 000 000 000 000 000 000 000 000 131 
255 255 255 255 255 255 255 255 255 181 025 000 000 000 000 000 000 000 000 000 000 000 000 000 000 000 000 000 000 000 000 000 000 000 000 000 000 000 000 000 000 000 021 160 255 255 255 255 255 255 255 255 003 000 000 000 000 000 000 000 000 000 000 000 131 
255 255 255 255 255 255 255 255 255 255 237 106 005 000 000 000 000 000 000 000 000 000 000 000 000 000 000 000 000 000 000 000 000 000 000 000 000 000 000 000 007 104 237 255 255 255 255 255 255 255 255 255 003 000 000 000 000 000 000 000 000 000 000 000 131 
255 255 255 255 255 255 255 255 255 255 255 255 220 103 012 000 000 000 000 000 000 000 000 000 000 000 000 000 000 000 000 000 000 000 000 000 000 000 027 131 234 255 255 255 255 255 255 255 255 255 255 255 003 000 000 000 000 000 000 000 000 000 000 000 131 
255 255 255 255 255 255 255 255 255 255 255 255 255 255 242 156 078 010 000 000 000 000 000 000 000 000 000 000 000 000 000 000 000 000 001 047 117 188 251 255 255 255 255 255 255 255 255 255 255 255 255 255 255 255 255 255 255 255 255 255 255 255 255 255 255 
255 255 255 255 255 255 255 255 255 255 255 255 255 255 255 255 255 248 200 149 104 074 045 028 019 010 015 027 039 050 071 109 148 187 233 255 255 255 255 255 255 255 255 255 255 255 255 255 255 255 255 255 255 255 255 255 255 255 255 255 255 255 255 255 255 
