P2
65 80
256

255 255 255 255 255 255 255 255 255 255 255 255 255 255 255 255 255 255 255 255 255 255 245 207 167 129 112 098 084 070 057 044 047 055 064 073 096 123 151 181 229 255 255 255 255 255 255 255 255 255 255 255 255 255 255 255 255 255 255 255 255 255 255 255 255 
255 255 255 255 255 255 255 255 255 255 255 255 255 255 255 255 255 232 168 112 071 031 001 000 000 000 000 000 000 000 000 000 000 000 000 000 000 000 000 000 000 022 072 136 210 255 255 255 255 255 255 255 255 255 255 255 255 255 255 255 255 255 255 255 255 
255 255 255 255 255 255 255 255 255 255 255 255 255 234 170 106 041 000 000 000 000 000 000 000 000 000 000 000 000 000 000 000 000 000 000 000 000 000 000 000 000 000 000 000 000 029 114 217 255 255 255 255 255 255 255 255 255 255 255 255 255 255 255 255 255 
255 255 255 255 255 255 255 255 255 255 222 135 048 001 000 000 000 000 000 000 000 000 000 000 000 000 000 000 000 000 000 000 000 000 000 000 000 000 000 000 000 000 000 000 000 000 000 001 067 187 255 255 255 255 255 255 255 255 255 255 255 255 255 255 255 
255 255 255 255 255 255 255 229 143 055 000 000 000 000 000 000 000 000 000 000 000 000 000 000 000 000 000 000 000 000 000 000 000 000 000 000 000 000 000 000 000 000 000 000 000 000 000 000 000 000 071 208 255 255 255 255 255 255 255 255 255 255 255 255 255 
255 255 255 255 255 242 063 002 000 000 000 000 000 000 000 000 000 000 000 000 000 000 000 000 000 000 000 000 000 000 000 000 000 000 000 000 000 000 000 000 000 000 000 000 000 000 000 000 000 000 000 003 127 252 255 255 255 255 255 255 255 255 255 255 255 
255 255 255 255 255 231 000 000 000 000 000 000 000 000 000 000 000 000 000 000 000 000 000 000 000 000 000 000 000 000 000 000 000 000 000 000 000 000 000 000 000 000 000 000 000 000 000 000 000 000 000 000 000 059 227 255 255 255 255 255 255 255 255 255 255 
255 255 255 255 255 231 000 000 000 000 000 000 000 000 000 000 000 000 000 000 000 000 000 000 000 000 000 000 000 000 000 000 000 000 000 000 000 000 000 000 000 000 000 000 000 000 000 000 000 000 000 000 000 000 029 216 255 255 255 255 255 255 255 255 255 
255 255 255 255 255 231 000 000 000 000 000 000 000 000 000 000 000 000 000 000 000 000 000 000 000 000 000 000 000 000 000 000 000 000 000 000 000 000 000 000 000 000 000 000 000 000 000 000 000 000 000 000 000 000 000 020 206 255 255 255 255 255 255 255 255 
255 255 255 255 255 231 000 000 000 000 000 000 000 000 000 000 000 000 000 000 000 000 000 000 000 000 000 000 000 000 000 000 000 000 000 000 000 000 000 000 000 000 000 000 000 000 000 000 000 000 000 000 000 000 000 000 025 228 255 255 255 255 255 255 255 
255 255 255 255 255 231 000 000 000 000 000 000 000 000 000 000 000 000 000 000 000 000 000 000 000 000 006 021 036 052 063 050 034 019 004 000 000 000 000 000 000 000 000 000 000 000 000 000 000 000 000 000 000 000 000 000 000 050 245 255 255 255 255 255 255 
255 255 255 255 255 231 000 000 000 000 000 000 000 000 000 000 000 000 000 010 054 102 150 197 231 246 255 255 255 255 255 255 255 255 255 234 182 129 076 021 000 000 000 000 000 000 000 000 000 000 000 000 000 000 000 000 000 000 105 255 255 255 255 255 255 
255 255 255 255 255 231 000 000 000 000 000 000 000 000 000 007 074 156 214 253 255 255 255 255 255 255 255 255 255 255 255 255 255 255 255 255 255 255 255 252 178 076 003 000 000 000 000 000 000 000 000 000 000 000 000 000 000 000 001 194 255 255 255 255 255 
255 255 255 255 255 231 000 000 000 000 000 000 010 082 165 241 255 255 255 255 255 255 255 255 255 255 255 255 255 255 255 255 255 255 255 255 255 255 255 255 255 255 227 107 001 000 000 000 000 000 000 000 000 000 000 000 000 000 000 039 251 255 255 255 255 
255 255 255 255 255 231 000 000 000 000 046 164 245 255 255 255 255 255 255 255 255 255 255 255 255 255 255 255 255 255 255 255 255 255 255 255 255 255 255 255 255 255 255 255 193 036 000 000 000 000 000 000 000 000 000 000 000 000 000 000 158 255 255 255 255 
255 255 255 255 255 231 000 000 059 180 255 255 255 255 255 255 255 255 255 255 255 255 255 255 255 255 255 255 255 255 255 255 255 255 255 255 255 255 255 255 255 255 255 255 255 246 094 000 000 000 000 000 000 000 000 000 000 000 000 000 036 252 255 255 255 
255 255 255 255 255 232 074 195 255 255 255 255 255 255 255 255 255 255 255 255 255 255 255 255 255 255 255 255 255 255 255 255 255 255 255 255 255 255 255 255 255 255 255 255 255 255 253 089 000 000 000 000 000 000 000 000 000 000 000 000 000 168 255 255 255 
255 255 255 255 255 255 255 255 255 255 255 255 255 255 255 255 255 255 255 255 255 255 255 255 255 255 255 255 255 255 255 255 255 255 255 255 255 255 255 255 255 255 255 255 255 255 255 251 078 000 000 000 000 000 000 000 000 000 000 000 000 071 255 255 255 
255 255 255 255 255 255 255 255 255 255 255 255 255 255 255 255 255 255 255 255 255 255 255 255 255 255 255 255 255 255 255 255 255 255 255 255 255 255 255 255 255 255 255 255 255 255 255 255 245 029 000 000 000 000 000 000 000 000 000 000 000 003 229 255 255 
255 255 255 255 255 255 255 255 255 255 255 255 255 255 255 255 255 255 255 255 255 255 255 255 255 255 255 255 255 255 255 255 255 255 255 255 255 255 255 255 255 255 255 255 255 255 255 255 255 166 000 000 000 000 000 000 000 000 000 000 000 000 141 255 255 
255 255 255 255 255 255 255 255 255 255 255 255 255 255 255 255 255 255 255 255 255 255 255 255 255 255 255 255 255 255 255 255 255 255 255 255 255 255 255 255 255 255 255 255 255 255 255 255 255 255 058 000 000 000 000 000 000 000 000 000 000 000 071 255 255 
255 255 255 255 255 255 255 255 255 255 255 255 255 255 255 255 255 255 255 255 255 255 255 255 255 255 255 255 255 255 255 255 255 255 255 255 255 255 255 255 255 255 255 255 255 255 255 255 255 255 178 000 000 000 000 000 000 000 000 000 000 000 010 249 255 
255 255 255 255 255 255 255 255 255 255 255 255 255 255 255 255 255 255 255 255 255 255 255 255 255 255 255 255 255 255 255 255 255 255 255 255 255 255 255 255 255 255 255 255 255 255 255 255 255 255 245 008 000 000 000 000 000 000 000 000 000 000 000 193 255 
255 255 255 255 255 255 255 255 255 255 255 255 255 255 255 255 255 255 255 255 255 255 255 255 255 255 255 255 255 255 255 255 255 255 255 255 255 255 255 255 255 255 255 255 255 255 255 255 255 255 255 074 000 000 000 000 000 000 000 000 000 000 000 140 255 
255 255 255 255 255 255 255 255 255 255 255 255 255 255 255 255 255 255 255 255 255 255 255 255 255 255 255 255 255 255 255 255 255 255 255 255 255 255 255 255 255 255 255 255 255 255 255 255 255 255 255 149 000 000 000 000 000 000 000 000 000 000 000 096 255 
255 255 255 255 255 255 255 255 255 255 255 255 255 255 255 255 255 255 255 255 255 255 255 255 255 255 255 255 255 255 255 255 255 255 255 255 255 255 255 255 255 255 255 255 255 255 255 255 255 255 255 185 000 000 000 000 000 000 000 000 000 000 000 051 255 
255 255 255 255 255 255 255 255 255 255 255 255 255 255 255 255 255 255 255 255 255 255 255 255 255 255 255 255 255 255 255 255 255 255 255 255 255 255 255 255 255 255 255 255 255 255 255 255 255 255 255 207 000 000 000 000 000 000 000 000 000 000 000 009 255 
255 255 255 255 255 255 255 255 255 255 255 255 255 255 255 255 255 255 255 255 255 255 255 255 255 255 255 255 255 255 255 255 255 255 255 255 255 255 255 255 255 255 255 255 255 255 255 255 255 255 255 230 000 000 000 000 000 000 000 000 000 000 000 000 238 
255 255 255 255 255 255 255 255 255 255 255 255 255 255 255 255 255 255 255 255 255 255 255 255 255 255 255 255 255 255 255 255 255 255 255 255 255 255 255 255 255 255 255 255 255 255 255 255 255 255 255 251 001 000 000 000 000 000 000 000 000 000 000 000 213 
255 255 255 255 255 255 255 255 255 255 255 255 255 255 255 255 255 255 255 255 255 255 255 255 255 255 255 255 255 255 255 255 255 255 255 255 255 255 255 255 255 255 255 255 255 255 255 255 255 255 255 255 003 000 000 000 000 000 000 000 000 000 000 000 188 
255 255 255 255 255 255 255 255 255 255 255 255 255 255 255 255 255 255 255 255 255 255 252 218 182 146 112 089 069 049 031 024 017 010 005 003 003 003 003 003 003 003 003 003 003 003 003 003 003 003 003 003 000 000 000 000 000 000 000 000 000 000 000 000 166 
255 255 255 255 255 255 255 255 255 255 255 255 255 255 255 255 255 255 243 175 116 061 010 000 000 000 000 000 000 000 000 000 000 000 000 000 000 000 000 000 000 000 000 000 000 000 000 000 000 000 000 000 000 000 000 000 000 000 000 000 000 000 000 000 156 
255 255 255 255 255 255 255 255 255 255 255 255 255 255 255 240 151 071 006 000 000 000 000 000 000 000 000 000 000 000 000 000 000 000 000 000 000 000 000 000 000 000 000 000 000 000 000 000 000 000 000 000 000 000 000 000 000 000 000 000 000 000 000 000 148 
255 255 255 255 255 255 255 255 255 255 255 255 255 206 097 010 000 000 000 000 000 000 000 000 000 000 000 000 000 000 000 000 000 000 000 000 000 000 000 000 000 000 000 000 000 000 000 000 000 000 000 000 000 000 000 000 000 000 000 000 000 000 000 000 140 
255 255 255 255 255 255 255 255 255 255 255 214 084 001 000 000 000 000 000 000 000 000 000 000 000 000 000 000 000 000 000 000 000 000 000 000 000 000 000 000 000 000 000 000 000 000 000 000 000 000 000 000 000 000 000 000 000 000 000 000 000 000 000 000 133 
255 255 255 255 255 255 255 255 255 248 121 003 000 000 000 000 000 000 000 000 000 000 000 000 000 000 000 000 000 000 000 000 000 000 000 000 000 000 000 000 000 000 000 000 000 000 000 000 000 000 000 000 000 000 000 000 000 000 000 000 000 000 000 000 131 
255 255 255 255 255 255 255 255 213 043 000 000 000 000 000 000 000 000 000 000 000 000 000 000 000 000 000 000 000 000 000 000 000 000 000 000 000 000 000 000 000 000 000 000 000 000 000 000 000 000 000 000 000 000 000 000 000 000 000 000 000 000 000 000 131 
255 255 255 255 255 255 255 187 015 000 000 000 000 000 000 000 000 000 000 000 000 000 000 000 000 000 000 000 000 000 000 000 000 000 000 000 000 000 000 000 000 000 000 000 000 000 000 000 000 000 000 000 000 000 000 000 000 000 000 000 000 000 000 000 131 
255 255 255 255 255 255 174 004 000 000 000 000 000 000 000 000 000 000 000 000 000 000 000 000 000 000 000 000 000 000 000 000 000 000 000 000 000 000 000 000 000 000 000 000 000 000 000 000 000 000 000 000 000 000 000 000 000 000 000 000 000 000 000 000 131 
255 255 255 255 255 193 008 000 000 000 000 000 000 000 000 000 000 000 000 000 000 000 000 000 000 000 000 000 000 000 000 000 000 010 022 035 043 046 050 055 055 055 055 055 055 055 055 055 055 055 055 055 000 000 000 000 000 000 000 000 000 000 000 000 131 
255 255 255 255 226 016 000 000 000 000 000 000 000 000 000 000 000 000 000 000 000 000 000 000 000 023 074 113 148 182 206 229 251 255 255 255 255 255 255 255 255 255 255 255 255 255 255 255 255 255 255 255 003 000 000 000 000 000 000 000 000 000 000 000 131 
255 255 255 254 066 000 000 000 000 000 000 000 000 000 000 000 000 000 000 000 000 015 092 161 227 255 255 255 255 255 255 255 255 255 255 255 255 255 255 255 255 255 255 255 255 255 255 255 255 255 255 255 003 000 000 000 000 000 000 000 000 000 000 000 131 
255 255 255 153 000 000 000 000 000 000 000 000 000 000 000 000 000 000 000 048 166 247 255 255 255 255 255 255 255 255 255 255 255 255 255 255 255 255 255 255 255 255 255 255 255 255 255 255 255 255 255 255 002 000 000 000 000 000 000 000 000 000 000 000 131 
255 255 247 027 000 000 000 000 000 000 000 000 000 000 000 000 000 009 158 254 255 255 255 255 255 255 255 255 255 255 255 255 255 255 255 255 255 255 255 255 255 255 255 255 255 255 255 255 255 255 255 243 000 000 000 000 000 000 000 000 000 000 000 000 131 
255 255 144 000 000 000 000 000 000 000 000 000 000 000 000 000 030 205 255 255 255 255 255 255 255 255 255 255 255 255 255 255 255 255 255 255 255 255 255 255 255 255 255 255 255 255 255 255 255 255 255 225 000 000 000 000 000 000 000 000 000 000 000 000 131 
255 255 041 000 000 000 000 000 000 000 000 000 000 000 000 029 234 255 255 255 255 255 255 255 255 255 255 255 255 255 255 255 255 255 255 255 255 255 255 255 255 255 255 255 255 255 255 255 255 255 255 208 000 000 000 000 000 000 000 000 000 000 000 000 131 
255 200 000 000 000 000 000 000 000 000 000 000 000 000 001 189 255 255 255 255 255 255 255 255 255 255 255 255 255 255 255 255 255 255 255 255 255 255 255 255 255 255 255 255 255 255 255 255 255 255 255 191 000 000 000 000 000 000 000 000 000 000 000 000 131 
255 117 000 000 000 000 000 000 000 000 000 000 000 000 110 255 255 255 255 255 255 255 255 255 255 255 255 255 255 255 255 255 255 255 255 255 255 255 255 255 255 255 255 255 255 255 255 255 255 255 255 173 000 000 000 000 000 000 000 000 000 000 000 000 131 
255 053 000 000 000 000 000 000 000 000 000 000 000 003 232 255 255 255 255 255 255 255 255 255 255 255 255 255 255 255 255 255 255 255 255 255 255 255 255 255 255 255 255 255 255 255 255 255 255 255 255 148 000 000 000 000 000 000 000 000 000 000 000 000 131 
243 003 000 000 000 000 000 000 000 000 000 000 000 065 255 255 255 255 255 255 255 255 255 255 255 255 255 255 255 255 255 255 255 255 255 255 255 255 255 255 255 255 255 255 255 255 255 255 255 255 255 093 000 000 000 000 000 000 000 000 000 000 000 000 131 
201 000 000 000 000 000 000 000 000 000 000 000 000 151 255 255 255 255 255 255 255 255 255 255 255 255 255 255 255 255 255 255 255 255 255 255 255 255 255 255 255 255 255 255 255 255 255 255 255 255 255 035 000 000 000 000 000 000 000 000 000 000 000 000 131 
166 000 000 000 000 000 000 000 000 000 000 000 000 217 255 255 255 255 255 255 255 255 255 255 255 255 255 255 255 255 255 255 255 255 255 255 255 255 255 255 255 255 255 255 255 255 255 255 255 255 233 000 000 000 000 000 000 000 000 000 000 000 000 000 131 
132 000 000 000 000 000 000 000 000 000 000 000 000 242 255 255 255 255 255 255 255 255 255 255 255 255 255 255 255 255 255 255 255 255 255 255 255 255 255 255 255 255 255 255 255 255 255 255 255 255 175 000 000 000 000 000 000 000 000 000 000 000 000 000 131 
113 000 000 000 000 000 000 000 000 000 000 000 011 255 255 255 255 255 255 255 255 255 255 255 255 255 255 255 255 255 255 255 255 255 255 255 255 255 255 255 255 255 255 255 255 255 255 255 255 255 113 000 000 000 000 000 000 000 000 000 000 000 000 000 131 
102 000 000 000 000 000 000 000 000 000 000 000 034 255 255 255 255 255 255 255 255 255 255 255 255 255 255 255 255 255 255 255 255 255 255 255 255 255 255 255 255 255 255 255 255 255 255 255 255 247 020 000 000 000 000 000 000 000 000 000 000 000 000 000 131 
092 000 000 000 000 000 000 000 000 000 000 000 038 255 255 255 255 255 255 255 255 255 255 255 255 255 255 255 255 255 255 255 255 255 255 255 255 255 255 255 255 255 255 255 255 255 255 255 255 158 000 000 000 000 000 000 000 000 000 000 000 000 000 000 131 
100 000 000 000 000 000 000 000 000 000 000 000 016 255 255 255 255 255 255 255 255 255 255 255 255 255 255 255 255 255 255 255 255 255 255 255 255 255 255 255 255 255 255 255 255 255 255 255 255 049 000 000 000 000 000 000 000 000 000 000 000 000 000 000 131 
121 000 000 000 000 000 000 000 000 000 000 000 000 249 255 255 255 255 255 255 255 255 255 255 255 255 255 255 255 255 255 255 255 255 255 255 255 255 255 255 255 255 255 255 255 255 255 255 195 000 000 000 000 000 000 000 000 000 000 000 000 000 000 000 131 
142 000 000 000 000 000 000 000 000 000 000 000 000 211 255 255 255 255 255 255 255 255 255 255 255 255 255 255 255 255 255 255 255 255 255 255 255 255 255 255 255 255 255 255 255 255 255 254 065 000 000 000 000 000 000 000 000 000 000 000 000 000 000 000 131 
163 000 000 000 000 000 000 000 000 000 000 000 000 138 255 255 255 255 255 255 255 255 255 255 255 255 255 255 255 255 255 255 255 255 255 255 255 255 255 255 255 255 255 255 255 255 255 143 000 000 000 000 000 000 000 000 000 000 000 000 000 000 000 000 131 
184 000 000 000 000 000 000 000 000 000 000 000 000 063 255 255 255 255 255 255 255 255 255 255 255 255 255 255 255 255 255 255 255 255 255 255 255 255 255 255 255 255 255 255 255 255 214 008 000 000 000 000 000 000 000 000 000 000 000 000 000 000 000 000 131 
226 000 000 000 000 000 000 000 000 000 000 000 000 002 209 255 255 255 255 255 255 255 255 255 255 255 255 255 255 255 255 255 255 255 255 255 255 255 255 255 255 255 255 255 255 251 051 000 000 000 000 000 000 000 000 000 000 000 000 000 000 000 000 000 131 
255 040 000 000 000 000 000 000 000 000 000 000 000 000 070 255 255 255 255 255 255 255 255 255 255 255 255 255 255 255 255 255 255 255 255 255 255 255 255 255 255 255 255 255 253 097 000 000 000 000 000 000 000 000 000 000 000 000 000 000 000 000 000 000 131 
255 111 000 000 000 000 000 000 000 000 000 000 000 000 000 172 255 255 255 255 255 255 255 255 255 255 255 255 255 255 255 255 255 255 255 255 255 255 255 255 255 255 255 250 086 000 000 000 000 000 000 000 000 000 000 000 000 000 000 000 000 000 000 000 131 
255 182 000 000 000 000 000 000 000 000 000 000 000 000 000 010 198 255 255 255 255 255 255 255 255 255 255 255 255 255 255 255 255 255 255 255 255 255 255 255 255 255 248 076 000 000 000 000 000 000 000 000 000 000 000 000 000 000 000 000 000 000 000 000 131 
255 245 009 000 000 000 000 000 000 000 000 000 000 000 000 000 018 205 255 255 255 255 255 255 255 255 255 255 255 255 255 255 255 255 255 255 255 255 255 255 255 217 061 000 000 000 000 000 000 000 000 000 000 000 000 000 000 000 000 000 000 000 000 000 131 
255 255 113 000 000 000 000 000 000 000 000 000 000 000 000 000 000 006 141 254 255 255 255 255 255 255 255 255 255 255 255 255 255 255 255 255 255 255 255 243 118 006 000 000 000 000 000 000 000 000 000 023 002 000 000 000 000 000 000 000 000 000 000 000 131 
255 255 234 012 000 000 000 000 000 000 000 000 000 000 000 000 000 000 000 064 186 255 255 255 255 255 255 255 255 255 255 255 255 255 255 255 255 241 157 026 000 000 000 000 000 000 000 000 000 000 000 181 003 000 000 000 000 000 000 000 000 000 000 000 131 
255 255 255 125 000 000 000 000 000 000 000 000 000 000 000 000 000 000 000 000 000 043 143 206 252 255 255 255 255 255 255 255 255 255 231 152 072 006 000 000 000 000 000 000 000 000 000 000 000 000 105 255 003 000 000 000 000 000 000 000 000 000 000 000 131 
255 255 255 241 019 000 000 000 000 000 000 000 000 000 000 000 000 000 000 000 000 000 000 000 013 064 087 104 122 122 098 075 051 027 001 000 000 000 000 000 000 000 000 000 000 000 000 000 000 042 245 255 003 000 000 000 000 000 000 000 000 000 000 000 131 
255 255 255 255 185 004 000 000 000 000 000 000 000 000 000 000 000 000 000 000 000 000 000 000 000 000 000 000 000 000 000 000 000 000 000 000 000 000 000 000 000 000 000 000 000 000 000 000 027 225 255 255 003 000 000 000 000 000 000 000 000 000 000 000 131 
255 255 255 255 255 150 000 000 000 000 000 000 000 000 000 000 000 000 000 000 000 000 000 000 000 000 000 000 000 000 000 000 000 000 000 000 000 000 000 000 000 000 000 000 000 000 000 017 211 255 255 255 003 000 000 000 000 000 000 000 000 000 000 000 131 
255 255 255 255 255 255 111 000 000 000 000 000 000 000 000 000 000 000 000 000 000 000 000 000 000 000 000 000 000 000 000 000 000 000 000 000 000 000 000 000 000 000 000 000 000 000 017 197 255 255 255 255 003 000 000 000 000 000 000 000 000 000 000 000 131 
255 255 255 255 255 255 252 095 000 000 000 000 000 000 000 000 000 000 000 000 000 000 000 000 000 000 000 000 000 000 000 000 000 000 000 000 000 000 000 000 000 000 000 000 000 039 218 255 255 255 255 255 003 000 000 000 000 000 000 000 000 000 000 000 131 
255 255 255 255 255 255 255 255 151 007 000 000 000 000 000 000 000 000 000 000 000 000 000 000 000 000 000 000 000 000 000 000 000 000 000 000 000 000 000 000 000 000 000 000 072 239 255 255 255 255 255 255 003 000 000 000 000 000 000 000 000 000 000 000 131 
255 255 255 255 255 255 255 255 255 204 033 000 000 000 000 000 000 000 000 000 000 000 000 000 000 000 000 000 000 000 000 000 000 000 000 000 000 000 000 000 000 000 021 160 255 255 255 255 255 255 255 255 003 000 000 000 000 000 000 000 000 000 000 000 131 
255 255 255 255 255 255 255 255 255 255 238 116 013 000 000 000 000 000 000 000 000 000 000 000 000 000 000 000 000 000 000 000 000 000 000 000 000 000 000 000 007 104 237 255 255 255 255 255 255 255 255 255 003 000 000 000 000 000 000 000 000 000 000 000 131 
255 255 255 255 255 255 255 255 255 255 255 255 238 131 021 000 000 000 000 000 000 000 000 000 000 000 000 000 000 000 000 000 000 000 000 000 000 000 027 131 234 255 255 255 255 255 255 255 255 255 255 255 003 000 000 000 000 000 000 000 000 000 000 000 131 
255 255 255 255 255 255 255 255 255 255 255 255 255 255 246 160 093 030 000 000 000 000 000 000 000 000 000 000 000 000 000 000 000 000 001 047 117 188 251 255 255 255 255 255 255 255 255 255 255 255 255 255 255 255 255 255 255 255 255 255 255 255 255 255 255 
255 255 255 255 255 255 255 255 255 255 255 255 255 255 255 255 255 255 221 157 107 087 068 050 031 013 015 027 039 050 071 109 148 187 233 255 255 255 255 255 255 255 255 255 255 255 255 255 255 255 255 255 255 255 255 255 255 255 255 255 255 255 255 255 255 
