P2
65 80
256

255 255 255 255 255 255 255 255 255 255 255 255 255 255 255 255 255 255 255 255 255 255 245 207 167 129 112 098 084 070 057 044 053 071 089 106 124 142 160 184 239 255 255 255 255 255 255 255 255 255 255 255 255 255 255 255 255 255 255 255 255 255 255 255 255 
255 255 255 255 255 255 255 255 255 255 255 255 255 255 255 255 255 232 168 112 071 031 001 000 000 000 000 000 000 000 000 000 000 000 000 000 000 000 000 000 002 047 108 169 231 255 255 255 255 255 255 255 255 255 255 255 255 255 255 255 255 255 255 255 255 
255 255 255 255 255 255 255 255 255 255 255 255 255 234 170 106 041 000 000 000 000 000 000 000 000 000 000 000 000 000 000 000 000 000 000 000 000 000 000 000 000 000 000 000 000 036 120 232 255 255 255 255 255 255 255 255 255 255 255 255 255 255 255 255 255 
255 255 255 255 255 255 255 255 255 255 222 135 048 001 000 000 000 000 000 000 000 000 000 000 000 000 000 000 000 000 000 000 000 000 000 000 000 000 000 000 000 000 000 000 000 000 000 008 107 224 255 255 255 255 255 255 255 255 255 255 255 255 255 255 255 
255 255 255 255 255 255 255 229 143 055 000 000 000 000 000 000 000 000 000 000 000 000 000 000 000 000 000 000 000 000 000 000 000 000 000 000 000 000 000 000 000 000 000 000 000 000 000 000 000 004 094 214 255 255 255 255 255 255 255 255 255 255 255 255 255 
255 255 255 255 255 242 063 002 000 000 000 000 000 000 000 000 000 000 000 000 000 000 000 000 000 000 000 000 000 000 000 000 000 000 000 000 000 000 000 000 000 000 000 000 000 000 000 000 000 000 000 004 146 255 255 255 255 255 255 255 255 255 255 255 255 
255 255 255 255 255 231 000 000 000 000 000 000 000 000 000 000 000 000 000 000 000 000 000 000 000 000 000 000 000 000 000 000 000 000 000 000 000 000 000 000 000 000 000 000 000 000 000 000 000 000 000 000 000 099 249 255 255 255 255 255 255 255 255 255 255 
255 255 255 255 255 231 000 000 000 000 000 000 000 000 000 000 000 000 000 000 000 000 000 000 000 000 000 000 000 000 000 000 000 000 000 000 000 000 000 000 000 000 000 000 000 000 000 000 000 000 000 000 000 000 058 231 255 255 255 255 255 255 255 255 255 
255 255 255 255 255 231 000 000 000 000 000 000 000 000 000 000 000 000 000 000 000 000 000 000 000 000 000 000 000 000 000 000 000 000 000 000 000 000 000 000 000 000 000 000 000 000 000 000 000 000 000 000 000 000 000 028 209 255 255 255 255 255 255 255 255 
255 255 255 255 255 231 000 000 000 000 000 000 000 000 000 000 000 000 000 000 000 000 000 000 000 000 000 000 000 000 000 000 000 000 000 000 000 000 000 000 000 000 000 000 000 000 000 000 000 000 000 000 000 000 000 000 033 240 255 255 255 255 255 255 255 
255 255 255 255 255 231 000 000 000 000 000 000 000 000 000 000 000 000 000 000 000 000 000 000 000 000 006 021 036 052 063 050 034 019 004 000 000 000 000 000 000 000 000 000 000 000 000 000 000 000 000 000 000 000 000 000 000 085 255 255 255 255 255 255 255 
255 255 255 255 255 231 000 000 000 000 000 000 000 000 000 000 000 000 000 010 054 102 150 197 231 246 255 255 255 255 255 255 255 255 255 234 182 129 076 021 000 000 000 000 000 000 000 000 000 000 000 000 000 000 000 000 000 000 152 255 255 255 255 255 255 
255 255 255 255 255 231 000 000 000 000 000 000 000 000 000 007 074 156 214 253 255 255 255 255 255 255 255 255 255 255 255 255 255 255 255 255 255 255 255 252 178 076 003 000 000 000 000 000 000 000 000 000 000 000 000 000 000 000 008 211 255 255 255 255 255 
255 255 255 255 255 231 000 000 000 000 000 000 010 082 165 241 255 255 255 255 255 255 255 255 255 255 255 255 255 255 255 255 255 255 255 255 255 255 255 255 255 255 227 107 001 000 000 000 000 000 000 000 000 000 000 000 000 000 000 042 252 255 255 255 255 
255 255 255 255 255 231 000 000 000 000 046 164 245 255 255 255 255 255 255 255 255 255 255 255 255 255 255 255 255 255 255 255 255 255 255 255 255 255 255 255 255 255 255 255 193 036 000 000 000 000 000 000 000 000 000 000 000 000 000 000 174 255 255 255 255 
255 255 255 255 255 231 000 000 059 180 255 255 255 255 255 255 255 255 255 255 255 255 255 255 255 255 255 255 255 255 255 255 255 255 255 255 255 255 255 255 255 255 255 255 255 246 094 000 000 000 000 000 000 000 000 000 000 000 000 000 064 255 255 255 255 
255 255 255 255 255 232 074 195 255 255 255 255 255 255 255 255 255 255 255 255 255 255 255 255 255 255 255 255 255 255 255 255 255 255 255 255 255 255 255 255 255 255 255 255 255 255 253 089 000 000 000 000 000 000 000 000 000 000 000 000 000 210 255 255 255 
255 255 255 255 255 255 255 255 255 255 255 255 255 255 255 255 255 255 255 255 255 255 255 255 255 255 255 255 255 255 255 255 255 255 255 255 255 255 255 255 255 255 255 255 255 255 255 251 078 000 000 000 000 000 000 000 000 000 000 000 000 100 255 255 255 
255 255 255 255 255 255 255 255 255 255 255 255 255 255 255 255 255 255 255 255 255 255 255 255 255 255 255 255 255 255 255 255 255 255 255 255 255 255 255 255 255 255 255 255 255 255 255 255 245 029 000 000 000 000 000 000 000 000 000 000 000 009 237 255 255 
255 255 255 255 255 255 255 255 255 255 255 255 255 255 255 255 255 255 255 255 255 255 255 255 255 255 255 255 255 255 255 255 255 255 255 255 255 255 255 255 255 255 255 255 255 255 255 255 255 166 000 000 000 000 000 000 000 000 000 000 000 000 144 255 255 
255 255 255 255 255 255 255 255 255 255 255 255 255 255 255 255 255 255 255 255 255 255 255 255 255 255 255 255 255 255 255 255 255 255 255 255 255 255 255 255 255 255 255 255 255 255 255 255 255 255 058 000 000 000 000 000 000 000 000 000 000 000 083 255 255 
255 255 255 255 255 255 255 255 255 255 255 255 255 255 255 255 255 255 255 255 255 255 255 255 255 255 255 255 255 255 255 255 255 255 255 255 255 255 255 255 255 255 255 255 255 255 255 255 255 255 178 000 000 000 000 000 000 000 000 000 000 000 028 255 255 
255 255 255 255 255 255 255 255 255 255 255 255 255 255 255 255 255 255 255 255 255 255 255 255 255 255 255 255 255 255 255 255 255 255 255 255 255 255 255 255 255 255 255 255 255 255 255 255 255 255 245 008 000 000 000 000 000 000 000 000 000 000 000 229 255 
255 255 255 255 255 255 255 255 255 255 255 255 255 255 255 255 255 255 255 255 255 255 255 255 255 255 255 255 255 255 255 255 255 255 255 255 255 255 255 255 255 255 255 255 255 255 255 255 255 255 255 074 000 000 000 000 000 000 000 000 000 000 000 173 255 
255 255 255 255 255 255 255 255 255 255 255 255 255 255 255 255 255 255 255 255 255 255 255 255 255 255 255 255 255 255 255 255 255 255 255 255 255 255 255 255 255 255 255 255 255 255 255 255 255 255 255 149 000 000 000 000 000 000 000 000 000 000 000 117 255 
255 255 255 255 255 255 255 255 255 255 255 255 255 255 255 255 255 255 255 255 255 255 255 255 255 255 255 255 255 255 255 255 255 255 255 255 255 255 255 255 255 255 255 255 255 255 255 255 255 255 255 185 000 000 000 000 000 000 000 000 000 000 000 062 255 
255 255 255 255 255 255 255 255 255 255 255 255 255 255 255 255 255 255 255 255 255 255 255 255 255 255 255 255 255 255 255 255 255 255 255 255 255 255 255 255 255 255 255 255 255 255 255 255 255 255 255 207 000 000 000 000 000 000 000 000 000 000 000 011 255 
255 255 255 255 255 255 255 255 255 255 255 255 255 255 255 255 255 255 255 255 255 255 255 255 255 255 255 255 255 255 255 255 255 255 255 255 255 255 255 255 255 255 255 255 255 255 255 255 255 255 255 230 000 000 000 000 000 000 000 000 000 000 000 000 246 
255 255 255 255 255 255 255 255 255 255 255 255 255 255 255 255 255 255 255 255 255 255 255 255 255 255 255 255 255 255 255 255 255 255 255 255 255 255 255 255 255 255 255 255 255 255 255 255 255 255 255 251 001 000 000 000 000 000 000 000 000 000 000 000 230 
255 255 255 255 255 255 255 255 255 255 255 255 255 255 255 255 255 255 255 255 255 255 255 255 255 255 255 255 255 255 255 255 255 255 255 255 255 255 255 255 255 255 255 255 255 255 255 255 255 255 255 255 003 000 000 000 000 000 000 000 000 000 000 000 214 
255 255 255 255 255 255 255 255 255 255 255 255 255 255 255 255 255 255 255 255 255 255 255 244 201 156 114 096 083 070 057 044 030 017 005 003 003 003 003 003 003 003 003 003 003 003 003 003 003 003 003 003 000 000 000 000 000 000 000 000 000 000 000 000 198 
255 255 255 255 255 255 255 255 255 255 255 255 255 255 255 255 255 255 248 178 125 080 035 001 000 000 000 000 000 000 000 000 000 000 000 000 000 000 000 000 000 000 000 000 000 000 000 000 000 000 000 000 000 000 000 000 000 000 000 000 000 000 000 000 182 
255 255 255 255 255 255 255 255 255 255 255 255 255 255 255 252 185 096 015 000 000 000 000 000 000 000 000 000 000 000 000 000 000 000 000 000 000 000 000 000 000 000 000 000 000 000 000 000 000 000 000 000 000 000 000 000 000 000 000 000 000 000 000 000 166 
255 255 255 255 255 255 255 255 255 255 255 255 255 210 107 022 000 000 000 000 000 000 000 000 000 000 000 000 000 000 000 000 000 000 000 000 000 000 000 000 000 000 000 000 000 000 000 000 000 000 000 000 000 000 000 000 000 000 000 000 000 000 000 000 150 
255 255 255 255 255 255 255 255 255 255 255 238 106 003 000 000 000 000 000 000 000 000 000 000 000 000 000 000 000 000 000 000 000 000 000 000 000 000 000 000 000 000 000 000 000 000 000 000 000 000 000 000 000 000 000 000 000 000 000 000 000 000 000 000 135 
255 255 255 255 255 255 255 255 255 253 153 019 000 000 000 000 000 000 000 000 000 000 000 000 000 000 000 000 000 000 000 000 000 000 000 000 000 000 000 000 000 000 000 000 000 000 000 000 000 000 000 000 000 000 000 000 000 000 000 000 000 000 000 000 131 
255 255 255 255 255 255 255 255 217 051 000 000 000 000 000 000 000 000 000 000 000 000 000 000 000 000 000 000 000 000 000 000 000 000 000 000 000 000 000 000 000 000 000 000 000 000 000 000 000 000 000 000 000 000 000 000 000 000 000 000 000 000 000 000 131 
255 255 255 255 255 255 255 212 024 000 000 000 000 000 000 000 000 000 000 000 000 000 000 000 000 000 000 000 000 000 000 000 000 000 000 000 000 000 000 000 000 000 000 000 000 000 000 000 000 000 000 000 000 000 000 000 000 000 000 000 000 000 000 000 131 
255 255 255 255 255 255 208 021 000 000 000 000 000 000 000 000 000 000 000 000 000 000 000 000 000 000 000 000 000 000 000 000 000 000 000 000 000 000 000 000 000 000 000 000 000 000 000 000 000 000 000 000 000 000 000 000 000 000 000 000 000 000 000 000 131 
255 255 255 255 255 204 018 000 000 000 000 000 000 000 000 000 000 000 000 000 000 000 000 000 000 000 000 000 000 000 000 000 000 006 014 022 030 038 046 054 055 055 055 055 055 055 055 055 055 055 055 055 000 000 000 000 000 000 000 000 000 000 000 000 131 
255 255 255 255 233 018 000 000 000 000 000 000 000 000 000 000 000 000 000 000 000 000 000 000 000 014 071 109 137 166 194 223 250 255 255 255 255 255 255 255 255 255 255 255 255 255 255 255 255 255 255 255 003 000 000 000 000 000 000 000 000 000 000 000 131 
255 255 255 255 094 000 000 000 000 000 000 000 000 000 000 000 000 000 000 000 000 012 088 148 207 253 255 255 255 255 255 255 255 255 255 255 255 255 255 255 255 255 255 255 255 255 255 255 255 255 255 255 003 000 000 000 000 000 000 000 000 000 000 000 131 
255 255 255 195 001 000 000 000 000 000 000 000 000 000 000 000 000 000 000 034 141 240 255 255 255 255 255 255 255 255 255 255 255 255 255 255 255 255 255 255 255 255 255 255 255 255 255 255 255 255 255 255 002 000 000 000 000 000 000 000 000 000 000 000 131 
255 255 252 046 000 000 000 000 000 000 000 000 000 000 000 000 000 009 157 253 255 255 255 255 255 255 255 255 255 255 255 255 255 255 255 255 255 255 255 255 255 255 255 255 255 255 255 255 255 255 255 243 000 000 000 000 000 000 000 000 000 000 000 000 131 
255 255 149 000 000 000 000 000 000 000 000 000 000 000 000 000 030 205 255 255 255 255 255 255 255 255 255 255 255 255 255 255 255 255 255 255 255 255 255 255 255 255 255 255 255 255 255 255 255 255 255 225 000 000 000 000 000 000 000 000 000 000 000 000 131 
255 255 055 000 000 000 000 000 000 000 000 000 000 000 000 029 234 255 255 255 255 255 255 255 255 255 255 255 255 255 255 255 255 255 255 255 255 255 255 255 255 255 255 255 255 255 255 255 255 255 255 208 000 000 000 000 000 000 000 000 000 000 000 000 131 
255 230 001 000 000 000 000 000 000 000 000 000 000 000 001 189 255 255 255 255 255 255 255 255 255 255 255 255 255 255 255 255 255 255 255 255 255 255 255 255 255 255 255 255 255 255 255 255 255 255 255 191 000 000 000 000 000 000 000 000 000 000 000 000 131 
255 153 000 000 000 000 000 000 000 000 000 000 000 000 110 255 255 255 255 255 255 255 255 255 255 255 255 255 255 255 255 255 255 255 255 255 255 255 255 255 255 255 255 255 255 255 255 255 255 255 255 173 000 000 000 000 000 000 000 000 000 000 000 000 131 
255 075 000 000 000 000 000 000 000 000 000 000 000 003 232 255 255 255 255 255 255 255 255 255 255 255 255 255 255 255 255 255 255 255 255 255 255 255 255 255 255 255 255 255 255 255 255 255 255 255 255 148 000 000 000 000 000 000 000 000 000 000 000 000 131 
245 008 000 000 000 000 000 000 000 000 000 000 000 065 255 255 255 255 255 255 255 255 255 255 255 255 255 255 255 255 255 255 255 255 255 255 255 255 255 255 255 255 255 255 255 255 255 255 255 255 255 093 000 000 000 000 000 000 000 000 000 000 000 000 131 
209 000 000 000 000 000 000 000 000 000 000 000 000 151 255 255 255 255 255 255 255 255 255 255 255 255 255 255 255 255 255 255 255 255 255 255 255 255 255 255 255 255 255 255 255 255 255 255 255 255 255 035 000 000 000 000 000 000 000 000 000 000 000 000 131 
186 000 000 000 000 000 000 000 000 000 000 000 000 217 255 255 255 255 255 255 255 255 255 255 255 255 255 255 255 255 255 255 255 255 255 255 255 255 255 255 255 255 255 255 255 255 255 255 255 255 233 000 000 000 000 000 000 000 000 000 000 000 000 000 131 
164 000 000 000 000 000 000 000 000 000 000 000 000 242 255 255 255 255 255 255 255 255 255 255 255 255 255 255 255 255 255 255 255 255 255 255 255 255 255 255 255 255 255 255 255 255 255 255 255 255 175 000 000 000 000 000 000 000 000 000 000 000 000 000 131 
141 000 000 000 000 000 000 000 000 000 000 000 011 255 255 255 255 255 255 255 255 255 255 255 255 255 255 255 255 255 255 255 255 255 255 255 255 255 255 255 255 255 255 255 255 255 255 255 255 255 113 000 000 000 000 000 000 000 000 000 000 000 000 000 131 
118 000 000 000 000 000 000 000 000 000 000 000 034 255 255 255 255 255 255 255 255 255 255 255 255 255 255 255 255 255 255 255 255 255 255 255 255 255 255 255 255 255 255 255 255 255 255 255 255 247 020 000 000 000 000 000 000 000 000 000 000 000 000 000 131 
096 000 000 000 000 000 000 000 000 000 000 000 038 255 255 255 255 255 255 255 255 255 255 255 255 255 255 255 255 255 255 255 255 255 255 255 255 255 255 255 255 255 255 255 255 255 255 255 255 158 000 000 000 000 000 000 000 000 000 000 000 000 000 000 131 
100 000 000 000 000 000 000 000 000 000 000 000 016 255 255 255 255 255 255 255 255 255 255 255 255 255 255 255 255 255 255 255 255 255 255 255 255 255 255 255 255 255 255 255 255 255 255 255 255 049 000 000 000 000 000 000 000 000 000 000 000 000 000 000 131 
121 000 000 000 000 000 000 000 000 000 000 000 000 249 255 255 255 255 255 255 255 255 255 255 255 255 255 255 255 255 255 255 255 255 255 255 255 255 255 255 255 255 255 255 255 255 255 255 195 000 000 000 000 000 000 000 000 000 000 000 000 000 000 000 131 
142 000 000 000 000 000 000 000 000 000 000 000 000 211 255 255 255 255 255 255 255 255 255 255 255 255 255 255 255 255 255 255 255 255 255 255 255 255 255 255 255 255 255 255 255 255 255 254 065 000 000 000 000 000 000 000 000 000 000 000 000 000 000 000 131 
163 000 000 000 000 000 000 000 000 000 000 000 000 138 255 255 255 255 255 255 255 255 255 255 255 255 255 255 255 255 255 255 255 255 255 255 255 255 255 255 255 255 255 255 255 255 255 143 000 000 000 000 000 000 000 000 000 000 000 000 000 000 000 000 131 
184 000 000 000 000 000 000 000 000 000 000 000 000 063 255 255 255 255 255 255 255 255 255 255 255 255 255 255 255 255 255 255 255 255 255 255 255 255 255 255 255 255 255 255 255 255 214 008 000 000 000 000 000 000 000 000 000 000 000 000 000 000 000 000 131 
226 000 000 000 000 000 000 000 000 000 000 000 000 002 209 255 255 255 255 255 255 255 255 255 255 255 255 255 255 255 255 255 255 255 255 255 255 255 255 255 255 255 255 255 255 251 051 000 000 000 000 000 000 000 000 000 000 000 000 000 000 000 000 000 131 
255 040 000 000 000 000 000 000 000 000 000 000 000 000 070 255 255 255 255 255 255 255 255 255 255 255 255 255 255 255 255 255 255 255 255 255 255 255 255 255 255 255 255 255 253 097 000 000 000 000 000 000 000 000 000 000 000 000 000 000 000 000 000 000 131 
255 111 000 000 000 000 000 000 000 000 000 000 000 000 000 172 255 255 255 255 255 255 255 255 255 255 255 255 255 255 255 255 255 255 255 255 255 255 255 255 255 255 255 250 086 000 000 000 000 000 000 000 000 000 000 000 000 000 000 000 000 000 000 000 131 
255 182 000 000 000 000 000 000 000 000 000 000 000 000 000 010 198 255 255 255 255 255 255 255 255 255 255 255 255 255 255 255 255 255 255 255 255 255 255 255 255 255 248 076 000 000 000 000 000 000 000 000 000 000 000 000 000 000 000 000 000 000 000 000 131 
255 245 009 000 000 000 000 000 000 000 000 000 000 000 000 000 018 197 255 255 255 255 255 255 255 255 255 255 255 255 255 255 255 255 255 255 255 255 255 255 255 217 061 000 000 000 000 000 000 000 000 000 000 000 000 000 000 000 000 000 000 000 000 000 131 
255 255 113 000 000 000 000 000 000 000 000 000 000 000 000 000 000 001 091 226 255 255 255 255 255 255 255 255 255 255 255 255 255 255 255 255 255 255 255 243 118 006 000 000 000 000 000 000 000 000 000 026 002 000 000 000 000 000 000 000 000 000 000 000 131 
255 255 234 012 000 000 000 000 000 000 000 000 000 000 000 000 000 000 000 009 125 244 255 255 255 255 255 255 255 255 255 255 255 255 255 255 255 241 157 026 000 000 000 000 000 000 000 000 000 000 007 200 003 000 000 000 000 000 000 000 000 000 000 000 131 
255 255 255 125 000 000 000 000 000 000 000 000 000 000 000 000 000 000 000 000 000 026 137 181 218 250 255 255 255 255 255 255 255 255 231 152 072 006 000 000 000 000 000 000 000 000 000 000 000 000 155 255 003 000 000 000 000 000 000 000 000 000 000 000 131 
255 255 255 241 019 000 000 000 000 000 000 000 000 000 000 000 000 000 000 000 000 000 000 000 000 004 036 073 110 122 098 075 051 027 001 000 000 000 000 000 000 000 000 000 000 000 000 000 000 104 255 255 003 000 000 000 000 000 000 000 000 000 000 000 131 
255 255 255 255 185 004 000 000 000 000 000 000 000 000 000 000 000 000 000 000 000 000 000 000 000 000 000 000 000 000 000 000 000 000 000 000 000 000 000 000 000 000 000 000 000 000 000 000 058 250 255 255 003 000 000 000 000 000 000 000 000 000 000 000 131 
255 255 255 255 255 150 000 000 000 000 000 000 000 000 000 000 000 000 000 000 000 000 000 000 000 000 000 000 000 000 000 000 000 000 000 000 000 000 000 000 000 000 000 000 000 000 000 025 230 255 255 255 003 000 000 000 000 000 000 000 000 000 000 000 131 
255 255 255 255 255 255 111 000 000 000 000 000 000 000 000 000 000 000 000 000 000 000 000 000 000 000 000 000 000 000 000 000 000 000 000 000 000 000 000 000 000 000 000 000 000 000 023 201 255 255 255 255 003 000 000 000 000 000 000 000 000 000 000 000 131 
255 255 255 255 255 255 252 095 000 000 000 000 000 000 000 000 000 000 000 000 000 000 000 000 000 000 000 000 000 000 000 000 000 000 000 000 000 000 000 000 000 000 000 000 000 074 233 255 255 255 255 255 003 000 000 000 000 000 000 000 000 000 000 000 131 
255 255 255 255 255 255 255 255 151 007 000 000 000 000 000 000 000 000 000 000 000 000 000 000 000 000 000 000 000 000 000 000 000 000 000 000 000 000 000 000 000 000 000 007 145 255 255 255 255 255 255 255 003 000 000 000 000 000 000 000 000 000 000 000 131 
255 255 255 255 255 255 255 255 255 204 033 000 000 000 000 000 000 000 000 000 000 000 000 000 000 000 000 000 000 000 000 000 000 000 000 000 000 000 000 000 000 000 042 209 255 255 255 255 255 255 255 255 003 000 000 000 000 000 000 000 000 000 000 000 131 
255 255 255 255 255 255 255 255 255 255 238 116 013 000 000 000 000 000 000 000 000 000 000 000 000 000 000 000 000 000 000 000 000 000 000 000 000 000 000 000 013 111 246 255 255 255 255 255 255 255 255 255 003 000 000 000 000 000 000 000 000 000 000 000 131 
255 255 255 255 255 255 255 255 255 255 255 255 238 131 021 000 000 000 000 000 000 000 000 000 000 000 000 000 000 000 000 000 000 000 000 000 000 007 081 170 246 255 255 255 255 255 255 255 255 255 255 255 003 000 000 000 000 000 000 000 000 000 000 000 131 
255 255 255 255 255 255 255 255 255 255 255 255 255 255 246 160 093 030 000 000 000 000 000 000 000 000 000 000 000 000 000 000 000 000 003 070 159 240 255 255 255 255 255 255 255 255 255 255 255 255 255 255 255 255 255 255 255 255 255 255 255 255 255 255 255 
255 255 255 255 255 255 255 255 255 255 255 255 255 255 255 255 255 255 221 157 107 087 068 050 031 013 025 050 074 099 124 148 173 198 236 255 255 255 255 255 255 255 255 255 255 255 255 255 255 255 255 255 255 255 255 255 255 255 255 255 255 255 255 255 255 
